<?xml version="1.0" standalone="no"?>
<!DOCTYPE svg PUBLIC "-//W3C//DTD SVG 20010904//EN"
 "http://www.w3.org/TR/2001/REC-SVG-20010904/DTD/svg10.dtd">
<svg version="1.0" xmlns="http://www.w3.org/2000/svg"
 width="32.000000pt" height="32.000000pt" viewBox="0 0 32.000000 32.000000"
 preserveAspectRatio="xMidYMid meet">

<g transform="translate(0.000000,32.000000) scale(0.100000,-0.100000)"
fill="#000000" stroke="none">
<path d="M40 175 c0 -30 0 -58 -1 -62 0 -4 4 -9 10 -11 7 -2 11 20 11 62 0 37
-4 66 -10 66 -5 0 -10 -25 -10 -55z"/>
<path d="M80 220 c0 -5 6 -13 14 -17 8 -5 16 -27 18 -52 4 -64 28 -67 28 -3 0
42 3 51 21 55 12 3 18 10 14 16 -8 14 -95 15 -95 1z"/>
<path d="M190 225 c0 -3 8 -17 17 -31 15 -24 15 -27 0 -54 -21 -34 -21 -40 -3
-40 8 0 18 9 21 20 3 11 10 20 15 20 5 0 12 -9 15 -20 3 -11 13 -20 21 -20 18
0 18 6 -2 39 -15 25 -15 30 0 59 14 28 14 32 2 32 -8 0 -20 -8 -26 -17 -10
-17 -10 -17 -20 0 -10 15 -40 25 -40 12z"/>
</g>
</svg>
