<svg height="32pt" preserveAspectRatio="xMidYMid meet" viewBox="0 0 32 32" width="32pt" xmlns="http://www.w3.org/2000/svg"><g transform="matrix(.1 0 0 -.1 0 32)"><path d="m40 175c0-30 0-58-1-62 0-4 4-9 10-11 7-2 11 20 11 62 0 37-4 66-10 66-5 0-10-25-10-55z"/><path d="m80 220c0-5 6-13 14-17 8-5 16-27 18-52 4-64 28-67 28-3 0 42 3 51 21 55 12 3 18 10 14 16-8 14-95 15-95 1z"/><path d="m190 225c0-3 8-17 17-31 15-24 15-27 0-54-21-34-21-40-3-40 8 0 18 9 21 20s10 20 15 20 12-9 15-20 13-20 21-20c18 0 18 6-2 39-15 25-15 30 0 59 14 28 14 32 2 32-8 0-20-8-26-17-10-17-10-17-20 0-10 15-40 25-40 12z"/></g></svg>